<svg xmlns:dc="http://purl.org/dc/elements/1.1/" xmlns:cc="http://creativecommons.org/ns#" xmlns:rdf="http://www.w3.org/1999/02/22-rdf-syntax-ns#" xmlns:svg="http://www.w3.org/2000/svg" xmlns="http://www.w3.org/2000/svg" viewBox="0 0 50 50" preserveAspectRatio="xMidYMid meet"><metadata><rdf:RDF><cc:Work><dc:format>image/svg+xml</dc:format><dc:type rdf:resource="http://purl.org/dc/dcmitype/StillImage"/><dc:title>Jdenticon</dc:title><dc:creator><cc:Agent><dc:title>Daniel Mester Pirttijärvi</dc:title></cc:Agent></dc:creator><dc:source>https://github.com/dmester/jdenticon</dc:source><cc:license rdf:resource="https://github.com/dmester/jdenticon/blob/master/LICENSE"/></cc:Work></rdf:RDF></metadata><rect fill="transparent" width="50" height="50" x="0" y="0"/><path fill="#a84a38" d="M13 1L25 1L25 7ZM37 1L37 13L31 13ZM37 49L25 49L25 43ZM13 49L13 37L19 37ZM1 13L13 13L13 19ZM49 13L49 25L43 25ZM49 37L37 37L37 31ZM1 37L1 25L7 25Z"/><path fill="#e8e8e8" d="M7 1L13 7L7 13L1 7ZM49 7L43 13L37 7L43 1ZM43 49L37 43L43 37L49 43ZM1 43L7 37L13 43L7 49Z"/><path fill="#d18475" d="M25 19L25 25L19 25ZM31 25L25 25L25 19ZM25 31L25 25L31 25ZM19 25L25 25L25 31Z"/></svg>