<svg xmlns:dc="http://purl.org/dc/elements/1.1/" xmlns:cc="http://creativecommons.org/ns#" xmlns:rdf="http://www.w3.org/1999/02/22-rdf-syntax-ns#" xmlns:svg="http://www.w3.org/2000/svg" xmlns="http://www.w3.org/2000/svg" viewBox="0 0 20 20" shape-rendering="crispEdges"><metadata><rdf:RDF><cc:Work><dc:format>image/svg+xml</dc:format><dc:type rdf:resource="http://purl.org/dc/dcmitype/StillImage"/><dc:title>Human / 8biticon</dc:title><dc:creator><cc:Agent><dc:title>Plastic Jam</dc:title></cc:Agent></dc:creator><dc:source>https://github.com/dicebear/dicebear</dc:source><cc:license rdf:resource="https://github.com/dicebear/dicebear/blob/v4/packages/avatars-human-sprites/LICENSE"/><dc:contributor><cc:Agent><dc:title>Florian Körner</dc:title></cc:Agent></dc:contributor></cc:Work></rdf:RDF></metadata><rect fill="transparent" width="20" height="20" x="0" y="0"/><path d="M8 15v1H4v1H3v3h14v-3h-1v-1h-4v-1h3v-1h1v-1h1v-3h1V7h-1V4h-1V3h-1V2H5v1H4v1H3v3H2v3h1v3h1v1h1v1h3z" fill="#EAC393"/><path d="M5 15v-1H4v-1H3v-3H2V7h1V4h1V3h1V2h10v1h1v1h1v3h1v3h-1v3h-1v1h-1v1H5z" fill="#FFF" fill-opacity=".1"/><path d="M5 8h2v1H5V8zm7 0h2v1h-2V8z" fill="#FFF"/><path d="M7 8h1v1H7V8zm7 0h1v1h-1V8z" fill="#697b94"/><path d="M4 7V6h1V5h1v1H5v1H4zm10-2h1v1h1v1h-1V6h-1V5z" fill-rule="evenodd" fill="#9e8267"/><path d="M3 11v2h1v1h1v1h10v-1h1v-1h1v-2H3z" id="Path" fill="#b89778" fill-opacity="0.5"/><path d="M8 13h3v1H8v-1z" fill="#d1a490"/><path d="M5 7h3v2H5V7zm7 0h3v2h-3V7z" fill-rule="evenodd" fill="#FFF" fill-opacity=".2"/><path d="M7 7h1v1H7V7zm7 0h1v1h-1V7z" fill-rule="evenodd" fill="#FFF" fill-opacity=".2"/><path d="M12 7v2h3V7h-3zM8 6H5v1H3v1h1v1h1v1h3V9h1V8h2v1h1v1h3V9h1V8h1V7h-2V6h-3v1H8V6zM5 7v2h3V7H5z" fill-rule="evenodd" fill="#191919"/><path d="M3 7h1v1H3V7zm6 0h2v1H9V7zm7 0h1v1h-1V7z" fill-rule="evenodd" fill="#FFF" fill-opacity=".2"/><path d="M3 20v-3h1v-1h3v-1h1v1h1v1h2v-1h1v-1h1v1h3v1h1v3H3z" fill="#5cb85c"/><path d="M6 16H4v1H3v3h6v-2H8v-1H6v-1zm2 0h1-1zm3 0h1-1zm2 0h1v1h-2v1h-1v2h6v-3h-1v-1h-3z" fill-rule="evenodd" fill="#FFF" fill-opacity=".2"/><path d="M3 8h1V5h12v3h1V4h-1V3h-1V2H5v1H4v1H3v4z" fill="#b89778"/></svg>