<svg xmlns:dc="http://purl.org/dc/elements/1.1/" xmlns:cc="http://creativecommons.org/ns#" xmlns:rdf="http://www.w3.org/1999/02/22-rdf-syntax-ns#" xmlns:svg="http://www.w3.org/2000/svg" xmlns="http://www.w3.org/2000/svg" viewBox="0 0 50 50" preserveAspectRatio="xMidYMid meet"><metadata><rdf:RDF><cc:Work><dc:format>image/svg+xml</dc:format><dc:type rdf:resource="http://purl.org/dc/dcmitype/StillImage"/><dc:title>Jdenticon</dc:title><dc:creator><cc:Agent><dc:title>Daniel Mester Pirttijärvi</dc:title></cc:Agent></dc:creator><dc:source>https://github.com/dmester/jdenticon</dc:source><cc:license rdf:resource="https://github.com/dmester/jdenticon/blob/master/LICENSE"/></cc:Work></rdf:RDF></metadata><rect fill="transparent" width="50" height="50" x="0" y="0"/><path fill="#998c32" d="M25 1L25 13L19 13ZM37 13L25 13L25 7ZM25 49L25 37L31 37ZM13 37L25 37L25 43ZM13 13L13 25L7 25ZM49 25L37 25L37 19ZM37 37L37 25L43 25ZM1 25L13 25L13 31Z"/><path fill="#ccbf66" d="M1 13L1 1L7 1ZM37 1L49 1L49 7ZM49 37L49 49L43 49ZM13 49L1 49L1 43Z"/><path fill="#e5dfb2" d="M25 13L25 22L19 13ZM37 25L28 25L37 19ZM25 37L25 28L31 37ZM13 25L22 25L13 31Z"/></svg>