<svg xmlns:dc="http://purl.org/dc/elements/1.1/" xmlns:cc="http://creativecommons.org/ns#" xmlns:rdf="http://www.w3.org/1999/02/22-rdf-syntax-ns#" xmlns:svg="http://www.w3.org/2000/svg" xmlns="http://www.w3.org/2000/svg" viewBox="0 0 50 50" preserveAspectRatio="xMidYMid meet"><metadata><rdf:RDF><cc:Work><dc:format>image/svg+xml</dc:format><dc:type rdf:resource="http://purl.org/dc/dcmitype/StillImage"/><dc:title>Jdenticon</dc:title><dc:creator><cc:Agent><dc:title>Daniel Mester Pirttijärvi</dc:title></cc:Agent></dc:creator><dc:source>https://github.com/dmester/jdenticon</dc:source><cc:license rdf:resource="https://github.com/dmester/jdenticon/blob/master/LICENSE"/></cc:Work></rdf:RDF></metadata><rect fill="transparent" width="50" height="50" x="0" y="0"/><path fill="#4c4c4c" d="M13 13L13 1L19 1ZM25 1L37 1L37 7ZM37 37L37 49L31 49ZM25 49L13 49L13 43ZM1 25L1 13L7 13ZM37 13L49 13L49 19ZM49 25L49 37L43 37ZM13 37L1 37L1 31Z"/><path fill="#7fcc66" d="M3 7a4,4 0 1,1 8,0a4,4 0 1,1 -8,0M39 7a4,4 0 1,1 8,0a4,4 0 1,1 -8,0M39 43a4,4 0 1,1 8,0a4,4 0 1,1 -8,0M3 43a4,4 0 1,1 8,0a4,4 0 1,1 -8,0"/><path fill="#e5e5e5" d="M13 13L25 13L25 14.9L20 25L13 25ZM37 13L37 25L35.1 25L25 20L25 13ZM37 37L25 37L25 35.1L30 25L37 25ZM13 37L13 25L14.9 25L25 30L25 37Z"/></svg>