<svg xmlns:dc="http://purl.org/dc/elements/1.1/" xmlns:cc="http://creativecommons.org/ns#" xmlns:rdf="http://www.w3.org/1999/02/22-rdf-syntax-ns#" xmlns:svg="http://www.w3.org/2000/svg" xmlns="http://www.w3.org/2000/svg" viewBox="0 0 50 50" preserveAspectRatio="xMidYMid meet"><metadata><rdf:RDF><cc:Work><dc:format>image/svg+xml</dc:format><dc:type rdf:resource="http://purl.org/dc/dcmitype/StillImage"/><dc:title>Jdenticon</dc:title><dc:creator><cc:Agent><dc:title>Daniel Mester Pirttijärvi</dc:title></cc:Agent></dc:creator><dc:source>https://github.com/dmester/jdenticon</dc:source><cc:license rdf:resource="https://github.com/dmester/jdenticon/blob/master/LICENSE"/></cc:Work></rdf:RDF></metadata><rect fill="transparent" width="50" height="50" x="0" y="0"/><path fill="#4c4c4c" d="M13 1L25 1L25 7ZM37 1L37 13L31 13ZM37 49L25 49L25 43ZM13 49L13 37L19 37ZM1 13L13 13L13 19ZM49 13L49 25L43 25ZM49 37L37 37L37 31ZM1 37L1 25L7 25Z"/><path fill="#cca466" d="M3 7a4,4 0 1,1 8,0a4,4 0 1,1 -8,0M39 7a4,4 0 1,1 8,0a4,4 0 1,1 -8,0M39 43a4,4 0 1,1 8,0a4,4 0 1,1 -8,0M3 43a4,4 0 1,1 8,0a4,4 0 1,1 -8,0"/><path fill="#e5e5e5" d="M13 13L25 13L25 25L13 25ZM17.3 20.4a3.1,3.1 0 1,0 6.2,0a3.1,3.1 0 1,0 -6.2,0M37 13L37 25L25 25L25 13ZM26.4 20.4a3.1,3.1 0 1,0 6.2,0a3.1,3.1 0 1,0 -6.2,0M37 37L25 37L25 25L37 25ZM26.4 29.6a3.1,3.1 0 1,0 6.2,0a3.1,3.1 0 1,0 -6.2,0M13 37L13 25L25 25L25 37ZM17.3 29.6a3.1,3.1 0 1,0 6.2,0a3.1,3.1 0 1,0 -6.2,0"/></svg>