<svg data-v-423bf9ae="" xmlns="http://www.w3.org/2000/svg" viewBox="0 0 215.56781876270693 60" class="font"><!----><!----><!----><g data-v-423bf9ae="" id="ff173e6e-067f-4a1b-a6d8-ca971bddf281" fill="white" transform="matrix(4.461225509643555,0,0,4.461225509643555,-2.143472194671631,-13.697355270385742)"><path d="M4.51 3.72C2.59 3.72 0.85 4.77 0.85 6.64C0.85 8.57 2.14 9.25 4.34 9.80C5.53 10.09 5.89 10.53 5.89 11.03C5.89 11.56 5.36 11.93 4.66 11.93C3.91 11.93 3.16 11.54 3.00 10.63L0.48 10.63C0.63 12.80 2.28 13.78 4.73 13.78C6.68 13.78 8.53 12.80 8.53 10.86C8.53 9.38 7.66 8.32 5.53 7.81C3.93 7.43 3.49 7.06 3.49 6.44C3.49 5.85 3.88 5.57 4.45 5.57C5.28 5.57 5.70 6.10 5.81 6.90L8.33 6.90C8.12 5.11 7.06 3.72 4.51 3.72ZM17.04 7.94C16.84 6.64 15.93 5.91 14.39 5.91C13.71 5.91 13.17 6.06 12.71 6.34L12.04 7.27L12.04 6.10L9.52 6.10L9.52 13.58L12.04 13.58L12.04 10.05C12.04 8.36 12.59 7.62 13.36 7.62C14.11 7.62 14.50 8.04 14.56 8.75C14.59 9.13 14.59 9.53 14.59 9.77L14.59 13.58L17.11 13.58L17.11 9.35C17.11 8.75 17.09 8.32 17.04 7.94ZM19.80 3.07C19.01 3.07 18.49 3.54 18.49 4.30C18.49 5.05 19.01 5.53 19.80 5.53C20.58 5.53 21.10 5.05 21.10 4.30C21.10 3.54 20.58 3.07 19.80 3.07ZM21.06 13.58L21.06 6.10L18.54 6.10L18.54 13.58ZM27.55 5.91C26.80 5.91 26.07 6.06 25.65 6.37L25.09 7.20L25.09 6.10L22.57 6.10L22.57 16.32L25.09 16.32L25.09 12.61L25.58 13.41C25.96 13.64 26.68 13.78 27.30 13.78C29.22 13.78 30.84 12.33 30.84 9.67C30.84 7.46 29.58 5.91 27.55 5.91ZM26.61 12.07C25.86 12.07 25.09 11.56 25.09 10.07L25.09 9.74C25.09 8.18 25.76 7.62 26.68 7.62C27.57 7.62 28.27 8.40 28.27 9.80C28.27 11.33 27.59 12.07 26.61 12.07ZM36.92 5.91C36.16 5.91 35.43 6.06 35.01 6.37L34.45 7.20L34.45 6.10L31.93 6.10L31.93 16.32L34.45 16.32L34.45 12.61L34.94 13.41C35.32 13.64 36.05 13.78 36.67 13.78C38.58 13.78 40.21 12.33 40.21 9.67C40.21 7.46 38.95 5.91 36.92 5.91ZM35.98 12.07C35.22 12.07 34.45 11.56 34.45 10.07L34.45 9.74C34.45 8.18 35.13 7.62 36.05 7.62C36.93 7.62 37.63 8.40 37.63 9.80C37.63 11.33 36.96 12.07 35.98 12.07ZM48.80 6.10L46.05 6.10L44.52 11.58L42.98 6.10L40.18 6.10L43.27 13.92L43.18 14.13C42.94 14.66 42.53 14.85 41.94 14.85C41.69 14.85 41.47 14.85 41.26 14.83L41.26 16.45C41.62 16.51 41.92 16.52 42.32 16.52C44.10 16.52 44.91 15.95 45.85 13.58Z"></path></g><!----><!----></svg>